# xmcd
#
# Track frame offsets:
#	150
#	3125
#	12770
#	26252
#	47340
#	55387
#	74835
#	86280
#	92870
#	109562
#	126260
#	131215
#	145765
#	148570
#	162132
#	167350
#	183765
#	203097
#	223860
#	237302
#	256125
#	274760
#	287542
#	303530
#	317345
#	322207
#
# Disc length: 4327 seconds
#
# Revision: 3
# Processed by: cddbd v1.5.2PL0 Copyright (c) Steve Scherf et al.
# Submitted via: audiograbber 1.83.01
#
DISCID=6710e51a
DTITLE=Various Artist - Macca's Sunday Best
DYEAR=2000
DGENRE=Country
TTITLE0=Drew Forsythe - Macca's On The Air
TTITLE1=Drew Forsythe - Macca On A Sunday Morning
TTITLE2=Ian McNamara - Outdoor Type
TTITLE3=Penny Davies - Where The Cane Fires Burn
TTITLE4=Enda Kenny - Earl Grey
TTITLE5=The Pilgrim Brothers - Road Train
TTITLE6=Ellis Campbell - Beach House Honeymoon
TTITLE7=Bob Barnard Quartet - Over The Top With Jim
TTITLE8=Ian McNamara - You Were Never Too Far From My Mind
TTITLE9=Will Dobbie - Opal Fever
TTITLE10=Launceston Prepatory School - Maranoa Lullaby
TTITLE11=Rex Dallas - Old Steam Train
TTITLE12=Keith McKenry - The Last Gallipoli Veteran
TTITLE13=Band of the 1st Batallion - Last Post/Waltzing Matilda
TTITLE14=Drew Forsythe - Ubobo
TTITLE15=Ian McNamara and Digger Revell - The Twentieth Century
TTITLE16=Metropolitan Male Choir of South Autstralia - Rain On The Track
TTITLE17=Bob Campbell - Pamulwuy
TTITLE18=Harry Young - My Backyard
TTITLE19=The Goodwills - Courting The Net
TTITLE20=Dermot Dorgan - Bank Robbers
TTITLE21=Wombat Jazz Band - The Wombat
TTITLE22=Frankie Davidson with Dawn Lake - Not Bloody Golf Again
TTITLE23=Carmel Charlton - My Nullarbor Home
TTITLE24=Tenor Australis - The Sydney Water Song
TTITLE25=Drew Forsythe - Macca's On The Air
EXTD=
EXTT0=
EXTT1=
EXTT2=
EXTT3=
EXTT4=
EXTT5=
EXTT6=
EXTT7=
EXTT8=
EXTT9=
EXTT10=
EXTT11=
EXTT12=
EXTT13=
EXTT14=
EXTT15=
EXTT16=
EXTT17=
EXTT18=
EXTT19=
EXTT20=
EXTT21=
EXTT22=
EXTT23=
EXTT24=
EXTT25=
PLAYORDER=
